<svg version="1.1" id="claw" xmlns="http://www.w3.org/2000/svg" xmlns:xlink="http://www.w3.org/1999/xlink" x="0px" y="0px"
	 viewBox="0 0 1200 1017" style="enable-background:new 0 0 1200 1017;" xml:space="preserve">
<style type="text/css">
	.st0{fill-rule:evenodd;clip-rule:evenodd;}
</style>
<path class="st0" d="M67.5,45.1c-1.1,4.4-4,4.3-4.2,10.5c2.4,2.2,4.4,5.1,7.7,6.3c3.2,1.2,6.7,0.4,9.1,2.1c-1.6,1.6-2,3-2.1,6.3
	c1.8,1.7,2.2,3.3,4.9,4.2c3,2.3,9.7,2,14,2.8c0,0.2,0,0.5,0,0.7c-4.4,3.3-8.4,12.6-2.1,16.8c3.4,2.3,7.8,0.3,9.1,4.9
	c-1.6,1.6-2,3-2.1,6.3c0.1,0.1,5.6,4.2,5.6,4.2c1.6,2.7-0.9,5.9,1.4,7.7c2.8,2.2,7.9,0.3,9.8,3.5c-2.5,3-2.4,6.3-2.1,10.5
	c3.1,1.8,5.7,3.2,10.5,3.5c-0.4,4.7-1.3,7.7-0.7,12.6c2.4,1.5,4.1,4.6,7,5.6c3.8,1.3,5.8-1.1,7.7,2.1c-1.7,2.5-0.9,5.1-0.7,8.4
	c2.2,1.5,3.9,3.4,7,4.2c4,1,6.7-0.9,9.8,0c-1.8,6.6-3.2,8.4-1.4,16.1c2.7,1.6,5.4,3.4,9.1,4.2c3.2,0.7,7.4-1.7,9.1-0.7
	c0.9,2.2-2.6,8.8-2.8,14c1.5,1.5,1.2,2.6,3.5,3.5c2.5,2,5.6,1.1,9.1,0.7c-0.2,4.9-1.2,7.5-0.7,11.9c7.6,5.6,8.2,2.8,17.5,4.2
	c-1.3,5.6-2.4,11,2.1,14c3.8,3.1,10.1,0.3,14-0.7c0,0.2,0,0.5,0,0.7c-2.6,3.7-1,10.4,0,14c4.4,2.6,7.5,2.5,14,2.1
	c-0.1,4,0.1,8.2,0.7,11.2c5.1,3.3,7.4,2.8,14.7,2.1c0.4,1.1,0.6,1.7,0.7,3.5c-2.4,3.4,0.7,9.1,2.8,10.5c3.4,2.8,10,0.7,13.3-0.7
	c0.2,5.3,0,9.4,1.4,14.7c2.2,0.6,2.1,1.1,4.9,1.4c2.6,1.4,7.4-1.1,11.2-1.4c-0.7,6.3-2.7,14,3.5,16.1c3.5,2.5,8.5,0.3,13.3,0
	c-0.1,4.9,0.5,8.6,1.4,11.9c7.1,3.5,10.9,1.1,18.2,0c0,0.2,0,0.5,0,0.7c-3.2,4.4-0.6,13.3,3.5,14.7c3.7,3.1,9.9,0.1,13.3-1.4
	c0.4,4-0.8,9.4,2.8,11.9c2.3,1.7,4.4,0.9,8.4,0.7c-0.1,4.1,0.7,6.2,1.4,9.1c6.6,4.5,6.8,4.2,16.1,2.8c-0.1,4.1,0.7,6.2,1.4,9.1
	c1.2,0.8,2.5,1.8,3.5,2.8c2.3-0.2,4.7-0.5,7-0.7c0.1,3.3,0.8,4.5,1.4,7c11.4,7.2,22.9,14.1,34.3,21.7c8.3,5.5,15.9,11.9,25.9,16.1
	c6.2,2.6,22.1,6.3,28.7,1.4c-4.8-3.2-7.2-9.5-11.9-12.6c-2.6-1.7-7.1-1-9.8-2.8c-1.2-2.3,1-4.3,0-7.7c-2.3-8.4-8.9-12.1-20.3-11.9
	c0.5-5.8,1.3-9.9,0-15.4c-3.6-2.3-6.8-3.6-12.6-4.2c0-10.5-4.1-15.4-11.9-17.5c-3.8-1-7.8,1.4-9.8-1.4c6.2-7.9-0.7-20.8-7-23.1
	c-3.1-1.2-8,0.4-9.8-2.1c3.8-5,0.9-17.3-2.8-19.6c-2.6-0.7-5.1-1.4-7.7-2.1c-0.6-0.7-0.2-0.2-0.7-1.4c1.1-1.6,0.8-5.7,0.7-8.4
	c-3.4-2.6-5.5-5.7-10.5-7c-4.3-1.1-7.1,2-9.1-0.7c2.3-3.4,0.6-7.4,0-11.2c-3-2.3-4.9-5.8-9.1-7c-3-0.9-6.9,0.7-9.1-0.7
	c-1-1.9,1.1-5.6,0-9.1c-1.2-3.9-5.9-8.6-9.8-9.8c-2.8-0.9-6.4,0.5-8.4-0.7c-2.5-4.4,1.1-9.3-4.2-11.2c-2.6-2.1-6.2-1.1-9.8-0.7
	c0.2-9.8-1.2-15.4-8.4-17.5c-2.1-0.6-4.2,0.1-5.6-0.7c-3.2-5.6,0.4-11-6.3-13.3c-1.9-1.5-4.9-1.5-8.4-1.4c0-3.9-0.3-7.4-0.7-10.5
	c-1.7-1.1-2-2-4.2-2.8c-2.3-1.9-5.2-1.2-8.4-0.7c-0.6-0.8-0.6-0.8-1.4-1.4c2.1-5.6-0.5-11.9-4.9-13.3c-2.1-1.8-5.7,0.3-8.4-1.4
	c-0.5-2.6-0.9-5.1-1.4-7.7c-3.2-5.7-10.9-4.4-17.5-3.5c-0.6-8.2,0.4-9.2-4.9-14.7c-2.3,0-4.7,0-7,0c-0.2-2.3-0.5-4.7-0.7-7
	c-1.6-1.1-3.6-2.8-4.9-4.2c-3,0-6.1,0-9.1,0c0.1-4.1-0.7-6.2-1.4-9.1c-5.9-3.9-6.3-4-15.4-3.5c0.1-5.8-0.1-11.1-4.2-12.6
	c-3.4-1.2-5.8,1.2-7.7-1.4c-2-3.4-0.2-6.8-4.2-8.4c-2.9-2.2-7.2-0.4-10.5-1.4c0.1-3.6,0-4.8-0.7-8.4c-1.2-0.7-1.2-0.9-2.8-1.4
	c-3.7-2.4-10.4,1.8-11.9,0.7c-2.9-5.1,0.5-9-7.7-9.1c-1,0.8-2,1-3.5,1.4c0.4-7.1,0-11.3-7-11.2c-1.1,0.9-0.4,0.4-1.4,0
	c-1.6-2.3-1.2-6-3.5-7.7c-2-1.5-6.4-3.5-8.4-4.2c-1.4,0-2.8,0-4.2,0c0-0.5,0-0.9,0-1.4c-1.7-1.6-4.7-4.1-7-4.9c-1.6,0-3.3,0-4.9,0
	c-1.2-0.8-1.5-3.9-2.8-4.9c-3.4-2.5-7.6-3.3-11.2-5.6c-3.5-2.2-5.6-5.6-8.4-8.4c-0.1-2.4-0.6-3,0-4.2c1.9-11.1,33.6-14,47-10.5
	c16.8,4.4,32,10,47,16.1c8.6,2.6,17.3,5.1,25.9,7.7c12.3,5.4,23.3,12.5,35.7,18.2c23.2,10.7,44.9,24.3,65.9,37.1
	c7,4.3,14.2,6.9,21,11.2c7.1,4.5,13.8,10.9,21,15.4c13,8.1,25.7,16,38.5,23.8c7.1,4.3,14.9,6.5,21.7,11.2c1.4,1.6,2.8,3.3,4.2,4.9
	c6.1,4.6,12.1,9.7,18.2,14c5.2,3.6,10.7,5.7,16.1,9.1c6,3.8,11.1,9.3,16.8,13.3c2,1.4,4.3,1.4,6.3,2.8c2.6,2.8,5.1,5.6,7.7,8.4
	c5.6,4,12.1,6.2,17.5,10.5c3.1,2.4,4.5,7.4,7.7,9.8c6,4.5,14.3,7.3,19.6,12.6c0.9,0.9,0.7,2.5,1.4,3.5c5.6,5.8,11.2,11.7,16.8,17.5
	c4.2,3,8.4,4.9,11.2,9.1c4.4,6.6,6.7,13.5,11.2,19.6c3,4,7.2,7.5,11.2,10.5c7.7,5.8,14.2,14.9,21,21.7c6,6,12.9,12.3,18.2,18.9
	c2.5,3.2,0.3,6.2,5.6,7c8-5.1,25.6,11.4,29.4,14.7c6.9,5.9,14.9,10,22.4,15.4c7.8,5.6,15.2,12.3,23.1,18.2
	c9.8,7.3,17.6,17.9,27.3,25.2c13.6,10.3,26.9,22.1,37.1,35.7c4,3.7,7.9,7.5,11.9,11.2c4.7,4.7,7.9,10,11.9,15.4
	c2.2,3,6.2,5.3,8.4,8.4c2.9,4,4.2,8.6,7,12.6c2.6,3.6,6.6,6.9,9.1,10.5c13.5,19.3,23.8,40,35,61.6c2.5,4.8,6.2,9.7,8.4,14.7
	c4.1,9.4,6.2,18.8,10.5,28.7c3.6,8.2,9.2,18.7,11.9,27.3c1.2,6.3,2.3,12.6,3.5,18.9c2.8,8.4,5.6,16.8,8.4,25.2
	c1.2,8.4,2.3,16.8,3.5,25.2c2,7.2,3.3,15.9,6.3,23.1c6.4,15.3,13.1,29.4,13.3,51.1c0.5,0,0.9,0,1.4,0c5.6-17.6,38.5-11.4,54-6.3
	c8,2.6,16.7,6.2,25.9,8.4c9.6,0.2,19.2,0.5,28.7,0.7c13.9,2.9,37.5,0.6,49.8-2.1c7.7,0,15.4,0,23.1,0c6.9-1.5,15.2-1,22.4-2.8
	c8.4-2.2,18.6-4.7,26.6-7c3.5-0.5,7-0.9,10.5-1.4c4-1.3,8.3-4.2,11.9-5.6c10.2-3.8,19.7-4.4,29.4-8.4c10.5-4.3,19.7-10.1,32.9-11.9
	c0,50.4,0,100.9,0,151.3c-3.7,1.2-6.1,4.4-9.1,6.3c-2.7,1.7-5.7,1.8-8.4,3.5c-4.2,2.6-9.2,6.5-14,8.4c-4.9,1.2-9.8,2.3-14.7,3.5
	c-6.6,2.9-12.2,9-18.9,11.9c-6.5,1.9-13.1,3.7-19.6,5.6c-14.2,5.9-28.1,13.1-40.6,21c-6,3.8-10,9.9-15.4,14
	c-11.7,8.7-23.8,16.1-37.1,23.1c-3.9,2.1-7.1,6.6-11.2,8.4c-9.5,4.2-25.5,2.4-36.4,4.9c-9,2-29.1,0.3-36.4-1.4
	c-7.9-0.2-15.9-0.5-23.8-0.7c-15.3-3.4-32.2-3.9-45.6-7c-7.8-1.8-17.2,2.1-23.1,3.5c-8.5,2-18.5-2.9-22.4-6.3
	c-6.9-5.9-11.2-19.1-11.2-31.5c-8.4-0.9-15.8-5.5-22.4-8.4c-10.3-4.5-20.8-7.6-30.1-13.3c-5.1-3.1-10.8-7-16.1-9.8
	c-5.9-3.1-12.8-5.9-18.9-8.4c-3-0.7-6.1-1.4-9.1-2.1c-9.9-5-20.7-14.4-30.1-20.3c-13.3-8.5-27.3-15.2-39.9-24.5
	c-6.9-5.1-12.5-12.5-19.6-17.5c-7.1-5-15.9-7.6-23.1-12.6c-2.3-2.6-4.7-5.1-7-7.7c-3.2-3.2-6.8-5-10.5-7.7c-2.8-3-5.6-6.1-8.4-9.1
	c-17.4-13.1-34.8-24.9-53.3-37.1c-4.7-3.1-9.2-7.7-14-10.5c-2.3-0.7-4.7-1.4-7-2.1c-3.6-2.4-5.6-7.9-9.1-10.5
	c-6.5-4.9-14.8-9.7-19.6-16.1c-2.7-3.6-4.6-6.7-7.7-9.8c-3.5-3-7-6.1-10.5-9.1c-4.5-6-9.5-12.4-15.4-16.8
	c-19.8-14.9-38.3-29.9-53.3-49.7c-5.6-5.4-11.2-10.7-16.8-16.1c-10.8-10.8-21.6-22.8-30.8-35c-4.9-4.7-9.8-9.3-14.7-14
	c-15.3-20.3-33.7-37.7-49.1-58.1c-9.3-8.6-18.7-17.3-28-25.9c-6.2-8.5-11.3-17.4-17.5-25.9c-3.8-5.2-9.6-9.5-13.3-14.7
	c-10.9-15.1-18.7-32-29.4-46.9c-3.2-4.4-8-8.2-11.2-12.6c-9.3-12.9-17.5-25.5-26.6-38.5c-3.5-5-8.5-9.6-11.9-14.7
	c-12.8-19.1-23.5-41-34.3-61.7c-3.5-7.7-7-15.4-10.5-23.1c-32.7-53.7-59-111.5-80.6-176.5C2.9,79.5-7.9,38.2,8.7,14.3
	C11.3,10.4,23.4-3.8,31.1,1c9.3,3.1,9.5,16.6,14.7,23.8c2.3,3.1,8,3.6,9.8,7c-2.3,1.6-2.8,3-2.8,7c0.6,0.7,0.2,0.2,0.7,1.4
	C57.6,42.8,60.7,45,67.5,45.1L67.5,45.1z"/>
</svg>
