<svg version="1.1" id="gear" xmlns="http://www.w3.org/2000/svg" xmlns:xlink="http://www.w3.org/1999/xlink" x="0px" y="0px"
	 viewBox="0 0 40 40" style="enable-background:new 0 0 40 40;" xml:space="preserve">
<style type="text/css">
	.st0{fill:#F09300;}
</style>
<path class="st0" d="M22.1,2L22.1,2l0.1,2c0,1.4,0.9,2.7,2.2,3.1C25,7.3,25.5,7.5,26,7.8c0.5,0.2,1,0.3,1.5,0.3c0.9,0,1.7-0.3,2.3-1
	l1.4-1.4c0,0,0,0,0.1,0h0.1l2.9,2.9c0,0,0,0,0,0.1c0,0,0,0,0,0.1L33,10.1c-1,1-1.2,2.5-0.6,3.8c0.3,0.5,0.5,1.1,0.7,1.6
	c0.5,1.3,1.7,2.2,3.1,2.2H38c0,0,0.1,0,0.1,0.1v4.1c0,0,0,0.1-0.1,0.1h-1.8c-1.4,0-2.7,0.9-3.1,2.3c-0.2,0.6-0.4,1.1-0.7,1.7
	c-0.6,1.3-0.4,2.8,0.6,3.8l1.3,1.3v0.1l-2.9,2.9c0,0,0,0-0.1,0h-0.1l-1.3-1.3c-0.6-0.6-1.4-1-2.3-1c-0.5,0-1,0.1-1.5,0.3
	c-0.5,0.3-1.1,0.5-1.7,0.7c-1.4,0.5-2.3,1.7-2.3,3.2v1.8c0,0,0,0.1-0.1,0.1h-4.1c0,0-0.1,0-0.1-0.1V36c0-1.4-0.9-2.7-2.3-3.2
	c-0.6-0.2-1.1-0.4-1.7-0.7c-0.5-0.2-1-0.3-1.5-0.3c-0.9,0-1.7,0.3-2.3,1l-1.3,1.3c0,0,0,0-0.1,0H8.5l-2.9-2.9v-0.1l1.3-1.3
	c1-1,1.2-2.5,0.6-3.8c0-0.5-0.3-1-0.5-1.6c-0.5-1.4-1.7-2.3-3.1-2.3H2.1c0,0-0.1,0-0.1-0.1v-4.1c0,0,0-0.1,0.1-0.1h1.8
	c1.4,0,2.7-0.9,3.1-2.2C7.3,15,7.5,14.5,7.8,14c0.6-1.3,0.4-2.8-0.6-3.8L5.8,8.8c0,0,0,0,0-0.1c0,0,0,0,0-0.1l2.9-2.9c0,0,0,0,0.1,0
	h0.1l0,0l1.4,1.4c0.6,0.6,1.4,1,2.3,1c0.5,0,1-0.1,1.5-0.3c0.5-0.3,1.1-0.5,1.6-0.7C17,6.6,17.9,5.4,17.9,4V2.1c0,0,0-0.1,0.1-0.1
	L22.1,2 M22.1,0H18c-1.1,0-2.1,0.9-2.1,2.1V4c0,0.6-0.4,1-0.9,1.2c-0.6,0.2-1.3,0.5-1.9,0.8c-0.2,0.1-0.4,0.1-0.6,0.1
	c-0.3,0-0.6-0.1-0.9-0.4l-1.4-1.4C9.9,4,9.3,3.8,8.8,3.8l0,0C8.2,3.8,7.7,4,7.3,4.4L4.4,7.3C4,7.7,3.8,8.2,3.8,8.8S4,9.9,4.4,10.3
	l1.3,1.3c0.4,0.4,0.5,1,0.2,1.5c-0.3,0.6-0.6,1.2-0.8,1.9c-0.2,0.5-0.7,0.9-1.2,0.9H2.1C1,15.9,0,16.8,0,18v4.1
	c0,1.1,0.9,2.1,2.1,2.1h1.8c0.6,0,1.1,0.4,1.2,0.9c0.2,0.7,0.5,1.3,0.8,1.9c0.2,0.5,0.1,1.1-0.2,1.5l-1.3,1.3
	c-0.8,0.8-0.8,2.1,0,2.9l2.9,2.9c0.4,0.4,0.9,0.6,1.5,0.6l0,0c0.6,0,1.1-0.2,1.5-0.6l1.3-1.3c0.2-0.2,0.6-0.4,0.9-0.4
	c0.2,0,0.4,0,0.6,0.1c0.6,0.3,1.3,0.6,1.9,0.8c0.5,0.2,0.9,0.7,0.9,1.3v1.8c0,1.1,0.9,2.1,2.1,2.1h4.1c1.1,0,2.1-0.9,2.1-2.1v-1.8
	c0-0.6,0.4-1.1,0.9-1.3c0.7-0.2,1.3-0.5,1.9-0.8c0.2-0.1,0.4-0.1,0.6-0.1c0.3,0,0.6,0.1,0.9,0.4l1.3,1.3c0.4,0.4,0.9,0.6,1.5,0.6
	c0.5,0,1.1-0.2,1.5-0.6l2.9-2.9c0.8-0.8,0.8-2.1,0-2.9l-1.3-1.3c-0.4-0.4-0.5-1-0.2-1.5c0.3-0.6,0.6-1.3,0.8-1.9
	c0.2-0.5,0.7-0.9,1.2-0.9H38c1.1,0,2.1-0.9,2.1-2.1V18c0-1.1-0.9-2.1-2.1-2.1h-1.8c-0.6,0-1.1-0.4-1.2-0.9c-0.2-0.6-0.5-1.3-0.8-1.9
	C34,12.6,34,12,34.4,11.6l1.3-1.3c0.4-0.4,0.6-0.9,0.6-1.5s-0.2-1.1-0.6-1.5l-2.9-2.9c-0.4-0.4-0.9-0.6-1.5-0.6
	c-0.5,0-1.1,0.2-1.5,0.6l-1.4,1.4c-0.2,0.2-0.6,0.4-0.9,0.4c-0.2,0-0.4,0-0.6-0.1c-0.6-0.3-1.2-0.6-1.9-0.8C24.5,5,24.1,4.5,24.1,4
	V2.1C24.1,0.9,23.2,0,22.1,0L22.1,0z"/>
<path class="st0" d="M20,10.6c5.2,0,9.4,4.2,9.4,9.4s-4.2,9.4-9.4,9.4s-9.4-4.2-9.4-9.4S14.8,10.6,20,10.6 M20,9.6
	C14.3,9.6,9.6,14.3,9.6,20S14.2,30.4,20,30.4c5.7,0,10.4-4.6,10.4-10.4C30.4,14.3,25.7,9.6,20,9.6L20,9.6z"/>
</svg>
