<svg xmlns="http://www.w3.org/2000/svg" viewBox="0 0 66.67 32"><defs><style>.cls-1{fill:gray;}</style></defs><g id="Слой_2" data-name="Слой 2"><g id="design"><path class="cls-1" d="M22.75,21.48c-.71-.14-.15-2.68.26-4.14.1-.37.82-2.59.64-3.07s-1-.67-1.63.1a12.33,12.33,0,0,0-1.41,3.23c0-1.43-.64-2.41-1.68-2.41-1.53,0-3.39,2-4.18,4.61s-.17,4.62,1.35,4.63,3-1.7,3.93-3.93c0,0,.71-1.87,1.67-4.34.61-1.57,1.39-2.3.73-.4-.34,1-2.59,6.84-.38,6.84,1.75,0,3.42-3.85,3.41-3.77s-2.31,8.31-2.39,9.37c-.05.73.51.83,1,.42.81-.63,3.8-8.26,4.6-10.35.07,1.2.68,2,1.63,2,1.73,0,3.39-3.6,3.44-3.35s-.38,2.16,1.2,2.16c1.05,0,2.09-1.1,2.81-2.68,0,1.12.39,1.84,1.33,1.84,1.12,0,2.31-1.23,2.85-2,.32-.45.33-.59.29-.72s-.37.2-.52.36c-1.49,1.6-2.48,1.89-2.66.7-.12-.85.37-2.55,1.09-5.07,1-2.06,2.18-4.19,3-6,1.45-3.33,1.1-4.51.76-5.09s-1.58-.62-2.14.74c-.34.81-3,10.93-3,10.93-.42,1.8-1.39,4.79-2.41,5.75-.86.81-1.75.38-.51-3.91.11-.38.82-2.89.85-3.15.08-.86-1.21-.49-1.47.29,0,.12-.08.24-.12.37a1.88,1.88,0,0,0-1.78-.37c-1.81.33-3.21,2.64-4.07,4.69L24.83,26.34l3.58-13.2c.31-1.14-1.18-.73-1.43,0-.45,1.36-.7,2.31-1.37,4C25.35,17.83,23.62,21.65,22.75,21.48Zm-3.39-2.14c-.19,1.92-1.17,3.64-2.18,3.84S15.5,22,15.69,20.05s1.16-3.64,2.18-3.84S19.55,17.41,19.36,19.34ZM42.53,2.58c.3-1.15.59-2.12.79-2,.6.34.06,2.58-2.39,8.08C41.24,7.56,42,4.51,42.53,2.58ZM30.74,14.49c1-2.5,2.95-3.86,3.75-2.47.46.8-.3,2.71-.6,3.46s-2,4-3.32,3.25C29.9,18.34,29.93,16.53,30.74,14.49Z"/><path class="cls-1" d="M63.75,3.41c.54-.07,1.12-.15,1.62-.2.84-.08,1.44-.14,1.27-.43A13.32,13.32,0,0,0,63.87,3c.32-1.27.58-2.31.6-2.42.1-.8-.83-.53-1-.23a21.25,21.25,0,0,0-.84,2.82,77.11,77.11,0,0,0-10.1,1.76c.36-1.53.81-3.83.82-3.88a.79.79,0,0,0-.87-1c-1,0-2.55.89-4.91,6.42C44,7.78,42.86,8.86,42.61,9.12c-.66.68,0,1.1.67.54a24.44,24.44,0,0,1,3.86-2.31c-.35.56-4.24,11.87-8.88,17.68s-7.78,6.36-11.58,6.13C16.43,30.55,10.28,19.23,10,18.5s6.43-2.83,11.11-7.91S24.77,2.45,24,1.36s-3.39-3.25-9.84,2.32a31.32,31.32,0,0,0-5,5.75C10,5,10.37,2,10.44,1.44,10.62,0,10-.09,9.54.1a2.43,2.43,0,0,0-1,1.78C8.47,2.57,7.46,12,7.46,12,4.37,16.47.9,24.46.3,27.23c-1.14,5.26,1.26,5.2,2.56,4.28s2.68-3.2,4.07-9.6c.35-1.64.93-4.52,2.06-10.58,1.24-1.81,5.88-8.16,9.69-9.46,2.63-.9,5.7-.33,3.31,4.89-2,4.41-11.21,9.93-12.22,10.53S6.86,18.5,11.54,24.2C16,29.65,20.22,32.08,27.18,32c5.36-.07,13.61-3.49,19.61-19.57.89-2.37,1.52-4.22,2.05-5.77L50.76,6c-.36,1.34-1.67,6.18-1.83,6.9-.42,1.81-.2,3.33,1,3.23.94-.08,2-1.56,3.21-4.08.76-1.56,1.27-2.76,1.59-3.54a3,3,0,0,0,2.1-.25A6,6,0,0,0,58.44,7c.3-.27-.93,2.07-1.9,4.91-.38,1.1-.73,3,.43,3.07,1.44.08,2.75-1.88,3.32-2.85,0,0-.4,2.25,1.16,2.32s3.56-2,4.69-3.87c.28-.46.33-.59.28-.71s-.38.18-.51.36c-1.88,2.51-3.54,3.61-4.09,3.12s-.2-1.66-.16-1.86C62.3,8.65,63.6,4,63.75,3.41ZM2,30.65c-1.17.2-1.65-3.18,2.68-12.27A41.78,41.78,0,0,1,7,14.18C4.11,30,2.71,30.54,2,30.65ZM49.12,5.86a20.52,20.52,0,0,1,1.69-4.17C51.73.4,52.13.56,52.1.69c-.24,1-1,3.84-1.16,4.62Zm5.64,1.49c-.17-.1-.49-.32-.53-.62a.26.26,0,0,1,.39-.29C54.85,6.57,54.79,7.15,54.76,7.35Zm6,2.81a7.93,7.93,0,0,1-2.16,3.29c-1.39,1.17-1-.63-.45-2.32.64-1.94,1.73-4.22,1.75-4.61s-.7-.69-1.39,0a3.78,3.78,0,0,1-3.34,1A1.19,1.19,0,0,0,55,6.26a.76.76,0,0,0-1.21.53,1.6,1.6,0,0,0,.6,1.57,46.86,46.86,0,0,1-2.53,5c-.69,1.18-1.1,1.54-1.5,1.4s0-1.4.32-2.86C51.26,9.69,52,6.8,52.34,5.52A88.59,88.59,0,0,1,62.47,3.58C61.82,6,61.11,8.65,60.72,10.16Z"/></g></g></svg>