<svg xmlns="http://www.w3.org/2000/svg" viewBox="0 0 249.04 249.04"><defs><style>.cls-1{fill:red;}.cls-2{fill:#fff;}</style></defs><g id="Слой_2" data-name="Слой 2"><g id="design"><polygon class="cls-1" points="124.52 0 151.38 24.29 186.78 16.68 197.89 51.15 232.36 62.26 224.75 97.66 249.04 124.52 224.75 151.38 232.36 186.78 197.89 197.89 186.78 232.36 151.38 224.75 124.52 249.04 97.66 224.75 62.26 232.36 51.15 197.89 16.68 186.78 24.29 151.38 0 124.52 24.29 97.66 16.68 62.26 51.15 51.15 62.26 16.68 97.66 24.29 124.52 0"/><path class="cls-2" d="M29.74,139.62H31.8C33.42,151.18,40.87,158,50.71,158c10.91,0,14.8-9,14.8-18.69,0-8.33-3.35-15.67-9.72-15.67-2.7,0-5.41,1.4-8.32,3.67l-.54.43-1.41-1.51L66.59,106h-33V86.56H88.1v1.73L52.44,122.55a23.68,23.68,0,0,1,10.37-2.27c13.18,0,24.32,7.24,24.32,19.77,0,12.75-10.49,23.24-30.7,23.24C41.09,163.29,31.15,153.56,29.74,139.62Z"/><path class="cls-2" d="M83.45,124.38c0-22.8,14.59-39.44,34.58-39.44s34.58,16.64,34.58,39.44S138,163.83,118,163.83,83.45,147.18,83.45,124.38Zm47,0c0-22.91-4.86-37.82-12.43-37.82s-12.42,14.91-12.42,37.82,4.86,37.83,12.42,37.83S130.46,147.29,130.46,124.38Z"/><path class="cls-2" d="M149.92,103.31a17.29,17.29,0,1,1,17.29,17.29A17.07,17.07,0,0,1,149.92,103.31Zm23,0c0-9.83-2.05-15.13-5.72-15.13s-5.73,5.3-5.73,15.13,2.05,15.13,5.73,15.13S172.93,113.14,172.93,103.31Zm33-16.75h2.38l-43,75.65h-2.38Zm-19.23,58.9A17.29,17.29,0,1,1,204,162.75,17.06,17.06,0,0,1,186.66,145.46Zm23,0c0-9.84-2-15.13-5.72-15.13s-5.73,5.29-5.73,15.13,2.05,15.12,5.73,15.12S209.67,155.29,209.67,145.46Z"/><path class="cls-2" d="M89.23,62.61a6.15,6.15,0,0,1-1.21,2,9.74,9.74,0,0,1-1.92,1.69,7.09,7.09,0,0,1-2.75,1.18,5.09,5.09,0,0,1-2.49-.2,6.36,6.36,0,0,1-2.25-1.41,13.69,13.69,0,0,1-2-2.41,8.61,8.61,0,0,1-1.78-5.63,5.86,5.86,0,0,1,2.89-4.33A10,10,0,0,1,80,52.26a9.23,9.23,0,0,1,1.83-.42l1,3.06a7,7,0,0,0-1.37.32,6.12,6.12,0,0,0-1.34.69,2.84,2.84,0,0,0-1.4,2.18,5.3,5.3,0,0,0,1.16,3.18,6.32,6.32,0,0,0,1.12,1.31,4.08,4.08,0,0,0,1.26.79,2.73,2.73,0,0,0,1.39.17A3.11,3.11,0,0,0,85,63a4.54,4.54,0,0,0,1.21-1.11,5.39,5.39,0,0,0,.66-1.15Z"/><path class="cls-2" d="M95.68,54.1l-1,.37,2.21,5.59-3.51,1.38L88.11,48l3.51-1.38,2.26,5.74.69-.7,1-6.62,3.75-1.48-1.24,6.42-1,1.57,1.93.45,6.12,4.85-4,1.59Z"/><path class="cls-2" d="M116.13,48.32,116,46.26h-.09L115,48.54l-4.2,7.21-2.36.32-2-14.35,3.74-.53,1,6.84.1,2,.12,0,.89-2.21,4.22-7.47,2.36-.33,2,14.36-3.73.52Z"/><path class="cls-2" d="M139.76,59.08l-2.74-.3L137,55.45l-9.69-1.06-.79,3.24-2.74-.3.73-6.6,1.7.18a8.12,8.12,0,0,0,.71-1,14.4,14.4,0,0,0,.95-2,27.81,27.81,0,0,0,1-3.22,36.56,36.56,0,0,0,.76-4.61l10,1.09-1.22,11.1,2.11.23ZM134.61,52l.89-8.1-3-.33c-.11.69-.26,1.42-.44,2.19s-.38,1.51-.61,2.22a18.4,18.4,0,0,1-.73,2,9.18,9.18,0,0,1-.8,1.52Z"/><path class="cls-2" d="M150.33,53l-1-.35-2.06,5.64-3.55-1.3,5-13.62,3.54,1.3-2.12,5.8,1-.07,5.16-4.26,3.79,1.38-5.19,4-1.77.53,1.14,1.62,1.36,7.69-4.06-1.48Z"/><path class="cls-2" d="M166,51.47a12.33,12.33,0,0,1,2.76.81,17.53,17.53,0,0,1,3,1.56,7.44,7.44,0,0,1,1.92,1.68,3.78,3.78,0,0,1,.79,1.74,3.85,3.85,0,0,1-.17,1.8,8,8,0,0,1-.93,1.88c-.47.72-1,1.42-1.47,2.11s-1,1.38-1.47,2.07a22.93,22.93,0,0,0-1.26,2.07,8.67,8.67,0,0,0-.85,2.09l-2.58-1.68.58-2-.12-.08a5.16,5.16,0,0,1-2.19.42,4.88,4.88,0,0,1-2.58-.9A5.22,5.22,0,0,1,160,63.78a4,4,0,0,1-.69-1.48,3.8,3.8,0,0,1,0-1.61,4.33,4.33,0,0,1,.67-1.62,4,4,0,0,1,1.73-1.56,4.23,4.23,0,0,1,2.24-.31,8.58,8.58,0,0,1,2.66.8,19.24,19.24,0,0,1,3,1.78,3.67,3.67,0,0,0,1.08-2.08c0-.55-.39-1.11-1.24-1.65a12.54,12.54,0,0,0-2.13-1.12,9.51,9.51,0,0,0-2.07-.62Zm-1.87,11.65a2.89,2.89,0,0,0,1.78.55,3.49,3.49,0,0,0,1.42-.37l1-1.58a10.31,10.31,0,0,0-1.43-1,6.75,6.75,0,0,0-1.37-.58,2.49,2.49,0,0,0-1.17-.06,1.29,1.29,0,0,0-.84.59,1.65,1.65,0,0,0-.28,1.32A1.84,1.84,0,0,0,164.08,63.12Z"/><path class="cls-2" d="M82.52,199.76a6.13,6.13,0,0,1-2.29-.34,10,10,0,0,1-2.3-1.11,7.2,7.2,0,0,1-2.16-2.08,5,5,0,0,1-.78-2.37,6.25,6.25,0,0,1,.42-2.63,13.57,13.57,0,0,1,1.44-2.8,8.62,8.62,0,0,1,4.5-3.82,5.86,5.86,0,0,1,5.11,1,10.24,10.24,0,0,1,2,1.63,8.68,8.68,0,0,1,1.1,1.52l-2.44,2.08a6.69,6.69,0,0,0-.83-1.14,5.7,5.7,0,0,0-1.15-1,2.84,2.84,0,0,0-2.55-.44,5.29,5.29,0,0,0-2.49,2.3,6.71,6.71,0,0,0-.77,1.54,3.9,3.9,0,0,0-.24,1.47,2.8,2.8,0,0,0,.38,1.35A3.2,3.2,0,0,0,80.56,196a4.78,4.78,0,0,0,1.49.69,5.66,5.66,0,0,0,1.32.16Z"/><path class="cls-2" d="M94.55,199.71l-.94-.37-2.21,5.58-3.51-1.38,5.33-13.49,3.51,1.39-2.27,5.74,1,0,5.28-4.13,3.75,1.48-5.29,3.84-1.78.48,1.1,1.65,1.16,7.72-4-1.58Z"/><path class="cls-2" d="M115.7,204.46l.43-2h-.08l-1.54,1.92-6,5.76-2.36-.33,2-14.36,3.73.53-1,6.84-.45,1.92.11,0,1.47-1.87,6.13-6,2.35.33-2,14.36-3.73-.53Z"/><path class="cls-2" d="M142,213.45l-2.73.3-.79-3.24-9.69,1.05-.08,3.34-2.74.29-.71-6.6,1.7-.18a7,7,0,0,0,.47-1.15,13.13,13.13,0,0,0,.5-2.17,26.28,26.28,0,0,0,.26-3.35,35.38,35.38,0,0,0-.25-4.67L138,196l1.21,11.1,2.11-.23Zm-6.55-5.79-.88-8.1-3,.33c0,.69,0,1.44,0,2.22s-.05,1.56-.11,2.31-.16,1.44-.28,2.1a8.69,8.69,0,0,1-.47,1.65Z"/><path class="cls-2" d="M151.24,201l-1,.34,2.05,5.64-3.55,1.29-4.95-13.62,3.54-1.29,2.11,5.8.71-.69,1.22-6.58,3.79-1.38-1.42,6.38-1,1.54,1.91.51,6,5-4.06,1.48Z"/><path class="cls-2" d="M158.8,189.49a12.71,12.71,0,0,1,1.87-2.19,18.18,18.18,0,0,1,2.64-2.05,7.42,7.42,0,0,1,2.32-1.06,3.9,3.9,0,0,1,1.92,0,4,4,0,0,1,1.56.89,8.28,8.28,0,0,1,1.34,1.63c.46.71.9,1.45,1.31,2.2s.85,1.49,1.29,2.2.89,1.37,1.37,2a9,9,0,0,0,1.56,1.64l-2.59,1.66L171.8,195l-.12.08a5.15,5.15,0,0,1-.52,2.17,4.9,4.9,0,0,1-1.88,2,5.3,5.3,0,0,1-1.7.73,4.12,4.12,0,0,1-1.64,0,3.9,3.9,0,0,1-1.48-.64,4.35,4.35,0,0,1-1.2-1.28,4,4,0,0,1-.71-2.21,4.18,4.18,0,0,1,.64-2.17,8.45,8.45,0,0,1,1.82-2.1,18.62,18.62,0,0,1,2.85-2,3.73,3.73,0,0,0-1.46-1.84c-.5-.24-1.17-.09-2,.45a13.67,13.67,0,0,0-1.89,1.49,8.52,8.52,0,0,0-1.41,1.63Zm9.85,6.49a2.86,2.86,0,0,0,1.24-1.4,3.53,3.53,0,0,0,.25-1.44l-1-1.59a9.63,9.63,0,0,0-1.47.91,6,6,0,0,0-1.09,1,2.34,2.34,0,0,0-.54,1,1.27,1.27,0,0,0,.2,1,1.63,1.63,0,0,0,1.08.81A1.86,1.86,0,0,0,168.65,196Z"/></g></g></svg>