<svg xmlns="http://www.w3.org/2000/svg" viewBox="0 0 983.09 85.7"><defs><style>.cls-1{fill:#f09300;}</style></defs><g id="Слой_2" data-name="Слой 2"><g id="design"><path class="cls-1" d="M3.78,3.69C4,4.3,5.3,7,6,8.44c2.43,5.09,4.23,10.41,3.83,16.13-.25,3.65-1.42,18-.63,20.64S4.13,53,3.81,55.76c-.63,5.5,3,8.71,1.14,13.68-.73,1.9-4.43,5.37-4.9,7.35-.69,2.94,5.62,5.78,6,8.71l968.25.2c-.28-4.89,2.09-9.39,5.13-13.1,1.16-1.41,3.64-7.48,3.64-7.48-.75-2.31-1.64-4.58-2.49-6.85-1.64-4.41-3.14-8.76-3.41-13.49-.31-5.45-.07-10.93.08-16.38A79.39,79.39,0,0,0,977,15c-.16-1.33-.35-2.65-.63-4-.07-.32-.11-.51-.13-.64a8.25,8.25,0,0,1-.3-.77c-.12-.33-.81-1.53-.87-1.72a19.44,19.44,0,0,0-1.35-1.53A8.43,8.43,0,0,1,971.42.2L4,0a1.72,1.72,0,0,0-.07.21C3.22,2,3.32,2.21,3.78,3.69Z"/></g></g></svg>