<svg xmlns="http://www.w3.org/2000/svg" viewBox="0 0 667.48 85.73"><defs><style>.cls-1{fill:#f09300;}</style></defs><g id="Слой_2" data-name="Слой 2"><g id="design"><path class="cls-1" d="M663.71,81.81c-.19-.61-1.53-3.33-2.22-4.76-2.43-5.08-4.23-10.41-3.83-16.13.25-3.64,1.42-18,.63-20.64s5.06-7.77,5.38-10.54c.63-5.51-3-8.71-1.13-13.68.72-1.9,4.42-5.38,4.89-7.36.7-2.93-5.62-5.77-6-8.7L8.77.23c.28,4.89-2.09,9.38-5.13,13.1C2.48,14.74,0,20.81,0,20.81c.75,2.31,1.64,4.57,2.49,6.85,1.64,4.41,3.13,8.76,3.41,13.49.31,5.45.07,10.93-.09,16.38a79.41,79.41,0,0,0,.28,13.36,37.93,37.93,0,0,0,.63,4c.07.32.11.51.13.64a8.25,8.25,0,0,1,.3.77c.12.33.81,1.52.86,1.72a19.57,19.57,0,0,0,1.36,1.53,8.51,8.51,0,0,1,2.3,6.22L663.5,85.5l.06-.21C664.26,83.47,664.17,83.29,663.71,81.81Z"/></g></g></svg>